<svg xmlns="http://www.w3.org/2000/svg" width="512" height="512" viewBox="0 0 256 256" role="img"><title>Coffee — generic illustration</title><desc>A cream ceramic coffee cup, curved handle, saucer and two delicate steam strokes.</desc><defs><pattern id="grain" width="37" height="43" patternUnits="userSpaceOnUse"><path d="M3 8l2 .5 M21 17l1 -.7 M11 32l3 .3 M30 39l2 -.5" stroke="#FFF7E8" stroke-width=".7" opacity=".22"/><circle cx="28" cy="5" r=".5" fill="#655A4B" opacity=".11"/></pattern><radialGradient id="w-paper" cx=".36" cy=".28" r=".78"><stop stop-color="#FFF7E8" stop-opacity=".42"/><stop offset=".67" stop-color="#FFF7E8" stop-opacity=".64"/><stop offset="1" stop-color="#FFF7E8" stop-opacity=".91"/></radialGradient><radialGradient id="w-cream" cx=".36" cy=".28" r=".78"><stop stop-color="#F2E9D9" stop-opacity=".42"/><stop offset=".67" stop-color="#F2E9D9" stop-opacity=".64"/><stop offset="1" stop-color="#F2E9D9" stop-opacity=".91"/></radialGradient><radialGradient id="w-sage" cx=".36" cy=".28" r=".78"><stop stop-color="#5E7E57" stop-opacity=".42"/><stop offset=".67" stop-color="#5E7E57" stop-opacity=".64"/><stop offset="1" stop-color="#5E7E57" stop-opacity=".91"/></radialGradient><radialGradient id="w-leaf" cx=".36" cy=".28" r=".78"><stop stop-color="#E1E9D7" stop-opacity=".42"/><stop offset=".67" stop-color="#E1E9D7" stop-opacity=".64"/><stop offset="1" stop-color="#E1E9D7" stop-opacity=".91"/></radialGradient><radialGradient id="w-forest" cx=".36" cy=".28" r=".78"><stop stop-color="#2F654B" stop-opacity=".42"/><stop offset=".67" stop-color="#2F654B" stop-opacity=".64"/><stop offset="1" stop-color="#2F654B" stop-opacity=".91"/></radialGradient><radialGradient id="w-orange" cx=".36" cy=".28" r=".78"><stop stop-color="#E66A2C" stop-opacity=".42"/><stop offset=".67" stop-color="#E66A2C" stop-opacity=".64"/><stop offset="1" stop-color="#E66A2C" stop-opacity=".91"/></radialGradient><radialGradient id="w-peach" cx=".36" cy=".28" r=".78"><stop stop-color="#FBE1C9" stop-opacity=".42"/><stop offset=".67" stop-color="#FBE1C9" stop-opacity=".64"/><stop offset="1" stop-color="#FBE1C9" stop-opacity=".91"/></radialGradient><radialGradient id="w-red" cx=".36" cy=".28" r=".78"><stop stop-color="#B94738" stop-opacity=".42"/><stop offset=".67" stop-color="#B94738" stop-opacity=".64"/><stop offset="1" stop-color="#B94738" stop-opacity=".91"/></radialGradient><radialGradient id="w-gold" cx=".36" cy=".28" r=".78"><stop stop-color="#D6A62C" stop-opacity=".42"/><stop offset=".67" stop-color="#D6A62C" stop-opacity=".64"/><stop offset="1" stop-color="#D6A62C" stop-opacity=".91"/></radialGradient><radialGradient id="w-ochre" cx=".36" cy=".28" r=".78"><stop stop-color="#A5750B" stop-opacity=".42"/><stop offset=".67" stop-color="#A5750B" stop-opacity=".64"/><stop offset="1" stop-color="#A5750B" stop-opacity=".91"/></radialGradient><radialGradient id="w-brown" cx=".36" cy=".28" r=".78"><stop stop-color="#655A4B" stop-opacity=".42"/><stop offset=".67" stop-color="#655A4B" stop-opacity=".64"/><stop offset="1" stop-color="#655A4B" stop-opacity=".91"/></radialGradient><radialGradient id="w-ink" cx=".36" cy=".28" r=".78"><stop stop-color="#8B7355" stop-opacity=".42"/><stop offset=".67" stop-color="#8B7355" stop-opacity=".64"/><stop offset="1" stop-color="#8B7355" stop-opacity=".91"/></radialGradient></defs><g id="layer-0" opacity="1"><path d="M47 178 C46 165.82 83.47999999999999 157 123 157 C171.64 158 199 168.55 199 178 C198 192.7 158.72 199 123 199 C77.4 198 47 188.08 47 178 Z" fill="#FFF7E8" fill-opacity=".68" stroke="none"/><path d="M47 178 C46 165.82 83.47999999999999 157 123 157 C171.64 158 199 168.55 199 178 C198 192.7 158.72 199 123 199 C77.4 198 47 188.08 47 178 Z" fill="url(#w-cream)" stroke="none"/><path d="M47 178 C46 165.82 83.47999999999999 157 123 157 C171.64 158 199 168.55 199 178 C198 192.7 158.72 199 123 199 C77.4 198 47 188.08 47 178 Z" fill="url(#grain)" stroke="none"/><path d="M47 178 C46 165.82 83.47999999999999 157 123 157 C171.64 158 199 168.55 199 178 C198 192.7 158.72 199 123 199 C77.4 198 47 188.08 47 178 Z" fill="none" stroke="#8B7355" stroke-width="1.1" stroke-linecap="round" stroke-linejoin="round"/></g><g id="layer-1" opacity="1"><path d="M170 115 C211 106 214 151 176 156 L174 145 C198 145 199 122 174 126 Z" fill="#FFF7E8" fill-opacity=".68" stroke="none"/><path d="M170 115 C211 106 214 151 176 156 L174 145 C198 145 199 122 174 126 Z" fill="url(#w-cream)" stroke="none"/><path d="M170 115 C211 106 214 151 176 156 L174 145 C198 145 199 122 174 126 Z" fill="url(#grain)" stroke="none"/><path d="M170 115 C211 106 214 151 176 156 L174 145 C198 145 199 122 174 126 Z" fill="none" stroke="#8B7355" stroke-width="1.1" stroke-linecap="round" stroke-linejoin="round"/></g><g id="layer-2" opacity="1"><path d="M74 111 Q80 174 122 178 Q164 177 178 111 Z" fill="#FFF7E8" fill-opacity=".68" stroke="none"/><path d="M74 111 Q80 174 122 178 Q164 177 178 111 Z" fill="url(#w-cream)" stroke="none"/><path d="M74 111 Q80 174 122 178 Q164 177 178 111 Z" fill="url(#grain)" stroke="none"/><path d="M74 111 Q80 174 122 178 Q164 177 178 111 Z" fill="none" stroke="#8B7355" stroke-width="1.1" stroke-linecap="round" stroke-linejoin="round"/></g><g id="layer-3" opacity="1"><path d="M74 111 C73 99.98 98.96000000000001 92 126 92 C159.28 93 178 102.45 178 111 C177 124.3 150.44 130 126 130 C94.8 129 74 120.12 74 111 Z" fill="#FFF7E8" fill-opacity=".68" stroke="none"/><path d="M74 111 C73 99.98 98.96000000000001 92 126 92 C159.28 93 178 102.45 178 111 C177 124.3 150.44 130 126 130 C94.8 129 74 120.12 74 111 Z" fill="url(#w-paper)" stroke="none"/><path d="M74 111 C73 99.98 98.96000000000001 92 126 92 C159.28 93 178 102.45 178 111 C177 124.3 150.44 130 126 130 C94.8 129 74 120.12 74 111 Z" fill="url(#grain)" stroke="none"/><path d="M74 111 C73 99.98 98.96000000000001 92 126 92 C159.28 93 178 102.45 178 111 C177 124.3 150.44 130 126 130 C94.8 129 74 120.12 74 111 Z" fill="none" stroke="#8B7355" stroke-width="1.1" stroke-linecap="round" stroke-linejoin="round"/></g><g id="layer-4" opacity="1"><path d="M82 112 C81 104.46000000000001 103.12 99 126 99 C154.16 100 170 106.15 170 112 C169 121.1 146.68 125 126 125 C99.6 124 82 118.24 82 112 Z" fill="#FFF7E8" fill-opacity=".68" stroke="none"/><path d="M82 112 C81 104.46000000000001 103.12 99 126 99 C154.16 100 170 106.15 170 112 C169 121.1 146.68 125 126 125 C99.6 124 82 118.24 82 112 Z" fill="url(#w-brown)" stroke="none"/><path d="M82 112 C81 104.46000000000001 103.12 99 126 99 C154.16 100 170 106.15 170 112 C169 121.1 146.68 125 126 125 C99.6 124 82 118.24 82 112 Z" fill="url(#grain)" stroke="none"/><path d="M82 112 C81 104.46000000000001 103.12 99 126 99 C154.16 100 170 106.15 170 112 C169 121.1 146.68 125 126 125 C99.6 124 82 118.24 82 112 Z" fill="none" stroke="#8B7355" stroke-width="0.7" stroke-linecap="round" stroke-linejoin="round"/></g><g id="layer-5" opacity="1"><path d="M85 134 Q90 159 104 165" fill="none" stroke="#8B7355" stroke-width="0.7" stroke-linecap="round" stroke-linejoin="round"/></g><g id="layer-6" opacity="0.7"><path d="M113 86 C99 70 123 63 112 47 M142 85 C130 71 150 65 141 52" fill="none" stroke="#8B7355" stroke-width="0.8" stroke-linecap="round" stroke-linejoin="round"/></g></svg>
