<svg xmlns="http://www.w3.org/2000/svg" width="512" height="512" viewBox="0 0 256 256" role="img"><title>Jasmine rice — generic illustration</title><desc>A low sage bowl carrying a pale mound of steamed rice, with sparse individual grains.</desc><defs><pattern id="grain" width="37" height="43" patternUnits="userSpaceOnUse"><path d="M3 8l2 .5 M21 17l1 -.7 M11 32l3 .3 M30 39l2 -.5" stroke="#FFF7E8" stroke-width=".7" opacity=".22"/><circle cx="28" cy="5" r=".5" fill="#E3D2BA" opacity=".11"/></pattern><radialGradient id="w-paper" cx=".36" cy=".28" r=".78"><stop stop-color="#FFF7E8" stop-opacity=".42"/><stop offset=".67" stop-color="#FFF7E8" stop-opacity=".64"/><stop offset="1" stop-color="#FFF7E8" stop-opacity=".91"/></radialGradient><radialGradient id="w-cream" cx=".36" cy=".28" r=".78"><stop stop-color="#F2E9D9" stop-opacity=".42"/><stop offset=".67" stop-color="#F2E9D9" stop-opacity=".64"/><stop offset="1" stop-color="#F2E9D9" stop-opacity=".91"/></radialGradient><radialGradient id="w-sage" cx=".36" cy=".28" r=".78"><stop stop-color="#E1E9D7" stop-opacity=".42"/><stop offset=".67" stop-color="#E1E9D7" stop-opacity=".64"/><stop offset="1" stop-color="#E1E9D7" stop-opacity=".91"/></radialGradient><radialGradient id="w-leaf" cx=".36" cy=".28" r=".78"><stop stop-color="#E1E9D7" stop-opacity=".42"/><stop offset=".67" stop-color="#E1E9D7" stop-opacity=".64"/><stop offset="1" stop-color="#E1E9D7" stop-opacity=".91"/></radialGradient><radialGradient id="w-forest" cx=".36" cy=".28" r=".78"><stop stop-color="#5E7E57" stop-opacity=".42"/><stop offset=".67" stop-color="#5E7E57" stop-opacity=".64"/><stop offset="1" stop-color="#5E7E57" stop-opacity=".91"/></radialGradient><radialGradient id="w-orange" cx=".36" cy=".28" r=".78"><stop stop-color="#E66A2C" stop-opacity=".42"/><stop offset=".67" stop-color="#E66A2C" stop-opacity=".64"/><stop offset="1" stop-color="#E66A2C" stop-opacity=".91"/></radialGradient><radialGradient id="w-peach" cx=".36" cy=".28" r=".78"><stop stop-color="#FBE1C9" stop-opacity=".42"/><stop offset=".67" stop-color="#FBE1C9" stop-opacity=".64"/><stop offset="1" stop-color="#FBE1C9" stop-opacity=".91"/></radialGradient><radialGradient id="w-red" cx=".36" cy=".28" r=".78"><stop stop-color="#FBE1C9" stop-opacity=".42"/><stop offset=".67" stop-color="#FBE1C9" stop-opacity=".64"/><stop offset="1" stop-color="#FBE1C9" stop-opacity=".91"/></radialGradient><radialGradient id="w-gold" cx=".36" cy=".28" r=".78"><stop stop-color="#D6A62C" stop-opacity=".42"/><stop offset=".67" stop-color="#D6A62C" stop-opacity=".64"/><stop offset="1" stop-color="#D6A62C" stop-opacity=".91"/></radialGradient><radialGradient id="w-ochre" cx=".36" cy=".28" r=".78"><stop stop-color="#A5750B" stop-opacity=".42"/><stop offset=".67" stop-color="#A5750B" stop-opacity=".64"/><stop offset="1" stop-color="#A5750B" stop-opacity=".91"/></radialGradient><radialGradient id="w-brown" cx=".36" cy=".28" r=".78"><stop stop-color="#E3D2BA" stop-opacity=".42"/><stop offset=".67" stop-color="#E3D2BA" stop-opacity=".64"/><stop offset="1" stop-color="#E3D2BA" stop-opacity=".91"/></radialGradient><radialGradient id="w-ink" cx=".36" cy=".28" r=".78"><stop stop-color="#9D917F" stop-opacity=".42"/><stop offset=".67" stop-color="#9D917F" stop-opacity=".64"/><stop offset="1" stop-color="#9D917F" stop-opacity=".91"/></radialGradient></defs><g id="layer-0" opacity="1"><path d="M49 134 C53 169 73 196 125 200 C174 200 198 174 207 137 Z" fill="#FFF7E8" fill-opacity=".68" stroke="none"/><path d="M49 134 C53 169 73 196 125 200 C174 200 198 174 207 137 Z" fill="url(#w-sage)" stroke="none"/><path d="M49 134 C53 169 73 196 125 200 C174 200 198 174 207 137 Z" fill="url(#grain)" stroke="none"/><path d="M49 134 C53 169 73 196 125 200 C174 200 198 174 207 137 Z" fill="none" stroke="#9D917F" stroke-width="1.1" stroke-linecap="round" stroke-linejoin="round"/></g><g id="layer-1" opacity="0.6"><path d="M74 177 Q118 201 173 181" fill="none" stroke="#9D917F" stroke-width="0.6" stroke-linecap="round" stroke-linejoin="round"/></g><g id="layer-2" opacity="1"><path d="M49 133 C48 114.44 86.92 101 128 101 C178.56 102 207 118.6 207 133 C206 155.4 165.13 165 128 165 C80.6 164 49 148.36 49 133 Z" fill="#FFF7E8" fill-opacity=".68" stroke="none"/><path d="M49 133 C48 114.44 86.92 101 128 101 C178.56 102 207 118.6 207 133 C206 155.4 165.13 165 128 165 C80.6 164 49 148.36 49 133 Z" fill="url(#w-cream)" stroke="none"/><path d="M49 133 C48 114.44 86.92 101 128 101 C178.56 102 207 118.6 207 133 C206 155.4 165.13 165 128 165 C80.6 164 49 148.36 49 133 Z" fill="url(#grain)" stroke="none"/><path d="M49 133 C48 114.44 86.92 101 128 101 C178.56 102 207 118.6 207 133 C206 155.4 165.13 165 128 165 C80.6 164 49 148.36 49 133 Z" fill="none" stroke="#9D917F" stroke-width="1.1" stroke-linecap="round" stroke-linejoin="round"/></g><g id="layer-3" opacity="1"><path d="M59 133 C58 119.08 92.12 109 128 109 C172.16 110 197 122.2 197 133 C196 149.8 160.43 157 128 157 C86.6 156 59 144.52 59 133 Z" fill="#FFF7E8" fill-opacity=".68" stroke="none"/><path d="M59 133 C58 119.08 92.12 109 128 109 C172.16 110 197 122.2 197 133 C196 149.8 160.43 157 128 157 C86.6 156 59 144.52 59 133 Z" fill="url(#w-paper)" stroke="none"/><path d="M59 133 C58 119.08 92.12 109 128 109 C172.16 110 197 122.2 197 133 C196 149.8 160.43 157 128 157 C86.6 156 59 144.52 59 133 Z" fill="url(#grain)" stroke="none"/><path d="M59 133 C58 119.08 92.12 109 128 109 C172.16 110 197 122.2 197 133 C196 149.8 160.43 157 128 157 C86.6 156 59 144.52 59 133 Z" fill="none" stroke="#9D917F" stroke-width="0.7" stroke-linecap="round" stroke-linejoin="round"/></g><g id="layer-4" opacity="1"><path d="M64 132 Q66 112 83 110 Q83 92 104 97 Q120 81 137 94 Q157 89 172 108 Q192 111 192 134 Q139 158 64 132 Z" fill="#FFF7E8" fill-opacity=".68" stroke="none"/><path d="M64 132 Q66 112 83 110 Q83 92 104 97 Q120 81 137 94 Q157 89 172 108 Q192 111 192 134 Q139 158 64 132 Z" fill="url(#w-paper)" stroke="none"/><path d="M64 132 Q66 112 83 110 Q83 92 104 97 Q120 81 137 94 Q157 89 172 108 Q192 111 192 134 Q139 158 64 132 Z" fill="url(#grain)" stroke="none"/><path d="M64 132 Q66 112 83 110 Q83 92 104 97 Q120 81 137 94 Q157 89 172 108 Q192 111 192 134 Q139 158 64 132 Z" fill="none" stroke="#9D917F" stroke-width="1.1" stroke-linecap="round" stroke-linejoin="round"/></g><g id="layer-5" opacity="1"><path d="M77 110 q3 -5 6 -2 q1 3 -4 5 q-4 0 -2 -3 Z" fill="#FFF7E8" fill-opacity=".68" stroke="none"/><path d="M77 110 q3 -5 6 -2 q1 3 -4 5 q-4 0 -2 -3 Z" fill="url(#w-paper)" stroke="none"/><path d="M77 110 q3 -5 6 -2 q1 3 -4 5 q-4 0 -2 -3 Z" fill="url(#grain)" stroke="none"/><path d="M77 110 q3 -5 6 -2 q1 3 -4 5 q-4 0 -2 -3 Z" fill="none" stroke="#9D917F" stroke-width="0.55" stroke-linecap="round" stroke-linejoin="round"/></g><g id="layer-6" opacity="1"><path d="M90 112 q3 -5 6 -2 q1 3 -4 5 q-4 0 -2 -3 Z" fill="#FFF7E8" fill-opacity=".68" stroke="none"/><path d="M90 112 q3 -5 6 -2 q1 3 -4 5 q-4 0 -2 -3 Z" fill="url(#w-paper)" stroke="none"/><path d="M90 112 q3 -5 6 -2 q1 3 -4 5 q-4 0 -2 -3 Z" fill="url(#grain)" stroke="none"/><path d="M90 112 q3 -5 6 -2 q1 3 -4 5 q-4 0 -2 -3 Z" fill="none" stroke="#9D917F" stroke-width="0.55" stroke-linecap="round" stroke-linejoin="round"/></g><g id="layer-7" opacity="1"><path d="M103 114 q3 -5 6 -2 q1 3 -4 5 q-4 0 -2 -3 Z" fill="#FFF7E8" fill-opacity=".68" stroke="none"/><path d="M103 114 q3 -5 6 -2 q1 3 -4 5 q-4 0 -2 -3 Z" fill="url(#w-paper)" stroke="none"/><path d="M103 114 q3 -5 6 -2 q1 3 -4 5 q-4 0 -2 -3 Z" fill="url(#grain)" stroke="none"/><path d="M103 114 q3 -5 6 -2 q1 3 -4 5 q-4 0 -2 -3 Z" fill="none" stroke="#9D917F" stroke-width="0.55" stroke-linecap="round" stroke-linejoin="round"/></g><g id="layer-8" opacity="1"><path d="M116 110 q3 -5 6 -2 q1 3 -4 5 q-4 0 -2 -3 Z" fill="#FFF7E8" fill-opacity=".68" stroke="none"/><path d="M116 110 q3 -5 6 -2 q1 3 -4 5 q-4 0 -2 -3 Z" fill="url(#w-paper)" stroke="none"/><path d="M116 110 q3 -5 6 -2 q1 3 -4 5 q-4 0 -2 -3 Z" fill="url(#grain)" stroke="none"/><path d="M116 110 q3 -5 6 -2 q1 3 -4 5 q-4 0 -2 -3 Z" fill="none" stroke="#9D917F" stroke-width="0.55" stroke-linecap="round" stroke-linejoin="round"/></g><g id="layer-9" opacity="1"><path d="M129 112 q3 -5 6 -2 q1 3 -4 5 q-4 0 -2 -3 Z" fill="#FFF7E8" fill-opacity=".68" stroke="none"/><path d="M129 112 q3 -5 6 -2 q1 3 -4 5 q-4 0 -2 -3 Z" fill="url(#w-paper)" stroke="none"/><path d="M129 112 q3 -5 6 -2 q1 3 -4 5 q-4 0 -2 -3 Z" fill="url(#grain)" stroke="none"/><path d="M129 112 q3 -5 6 -2 q1 3 -4 5 q-4 0 -2 -3 Z" fill="none" stroke="#9D917F" stroke-width="0.55" stroke-linecap="round" stroke-linejoin="round"/></g><g id="layer-10" opacity="1"><path d="M142 114 q3 -5 6 -2 q1 3 -4 5 q-4 0 -2 -3 Z" fill="#FFF7E8" fill-opacity=".68" stroke="none"/><path d="M142 114 q3 -5 6 -2 q1 3 -4 5 q-4 0 -2 -3 Z" fill="url(#w-paper)" stroke="none"/><path d="M142 114 q3 -5 6 -2 q1 3 -4 5 q-4 0 -2 -3 Z" fill="url(#grain)" stroke="none"/><path d="M142 114 q3 -5 6 -2 q1 3 -4 5 q-4 0 -2 -3 Z" fill="none" stroke="#9D917F" stroke-width="0.55" stroke-linecap="round" stroke-linejoin="round"/></g><g id="layer-11" opacity="1"><path d="M155 110 q3 -5 6 -2 q1 3 -4 5 q-4 0 -2 -3 Z" fill="#FFF7E8" fill-opacity=".68" stroke="none"/><path d="M155 110 q3 -5 6 -2 q1 3 -4 5 q-4 0 -2 -3 Z" fill="url(#w-paper)" stroke="none"/><path d="M155 110 q3 -5 6 -2 q1 3 -4 5 q-4 0 -2 -3 Z" fill="url(#grain)" stroke="none"/><path d="M155 110 q3 -5 6 -2 q1 3 -4 5 q-4 0 -2 -3 Z" fill="none" stroke="#9D917F" stroke-width="0.55" stroke-linecap="round" stroke-linejoin="round"/></g><g id="layer-12" opacity="1"><path d="M168 112 q3 -5 6 -2 q1 3 -4 5 q-4 0 -2 -3 Z" fill="#FFF7E8" fill-opacity=".68" stroke="none"/><path d="M168 112 q3 -5 6 -2 q1 3 -4 5 q-4 0 -2 -3 Z" fill="url(#w-paper)" stroke="none"/><path d="M168 112 q3 -5 6 -2 q1 3 -4 5 q-4 0 -2 -3 Z" fill="url(#grain)" stroke="none"/><path d="M168 112 q3 -5 6 -2 q1 3 -4 5 q-4 0 -2 -3 Z" fill="none" stroke="#9D917F" stroke-width="0.55" stroke-linecap="round" stroke-linejoin="round"/></g><g id="layer-13" opacity="1"><path d="M77 124 q3 -5 6 -2 q1 3 -4 5 q-4 0 -2 -3 Z" fill="#FFF7E8" fill-opacity=".68" stroke="none"/><path d="M77 124 q3 -5 6 -2 q1 3 -4 5 q-4 0 -2 -3 Z" fill="url(#w-paper)" stroke="none"/><path d="M77 124 q3 -5 6 -2 q1 3 -4 5 q-4 0 -2 -3 Z" fill="url(#grain)" stroke="none"/><path d="M77 124 q3 -5 6 -2 q1 3 -4 5 q-4 0 -2 -3 Z" fill="none" stroke="#9D917F" stroke-width="0.55" stroke-linecap="round" stroke-linejoin="round"/></g><g id="layer-14" opacity="1"><path d="M90 120 q3 -5 6 -2 q1 3 -4 5 q-4 0 -2 -3 Z" fill="#FFF7E8" fill-opacity=".68" stroke="none"/><path d="M90 120 q3 -5 6 -2 q1 3 -4 5 q-4 0 -2 -3 Z" fill="url(#w-paper)" stroke="none"/><path d="M90 120 q3 -5 6 -2 q1 3 -4 5 q-4 0 -2 -3 Z" fill="url(#grain)" stroke="none"/><path d="M90 120 q3 -5 6 -2 q1 3 -4 5 q-4 0 -2 -3 Z" fill="none" stroke="#9D917F" stroke-width="0.55" stroke-linecap="round" stroke-linejoin="round"/></g><g id="layer-15" opacity="1"><path d="M103 122 q3 -5 6 -2 q1 3 -4 5 q-4 0 -2 -3 Z" fill="#FFF7E8" fill-opacity=".68" stroke="none"/><path d="M103 122 q3 -5 6 -2 q1 3 -4 5 q-4 0 -2 -3 Z" fill="url(#w-paper)" stroke="none"/><path d="M103 122 q3 -5 6 -2 q1 3 -4 5 q-4 0 -2 -3 Z" fill="url(#grain)" stroke="none"/><path d="M103 122 q3 -5 6 -2 q1 3 -4 5 q-4 0 -2 -3 Z" fill="none" stroke="#9D917F" stroke-width="0.55" stroke-linecap="round" stroke-linejoin="round"/></g><g id="layer-16" opacity="1"><path d="M116 124 q3 -5 6 -2 q1 3 -4 5 q-4 0 -2 -3 Z" fill="#FFF7E8" fill-opacity=".68" stroke="none"/><path d="M116 124 q3 -5 6 -2 q1 3 -4 5 q-4 0 -2 -3 Z" fill="url(#w-paper)" stroke="none"/><path d="M116 124 q3 -5 6 -2 q1 3 -4 5 q-4 0 -2 -3 Z" fill="url(#grain)" stroke="none"/><path d="M116 124 q3 -5 6 -2 q1 3 -4 5 q-4 0 -2 -3 Z" fill="none" stroke="#9D917F" stroke-width="0.55" stroke-linecap="round" stroke-linejoin="round"/></g><g id="layer-17" opacity="1"><path d="M129 120 q3 -5 6 -2 q1 3 -4 5 q-4 0 -2 -3 Z" fill="#FFF7E8" fill-opacity=".68" stroke="none"/><path d="M129 120 q3 -5 6 -2 q1 3 -4 5 q-4 0 -2 -3 Z" fill="url(#w-paper)" stroke="none"/><path d="M129 120 q3 -5 6 -2 q1 3 -4 5 q-4 0 -2 -3 Z" fill="url(#grain)" stroke="none"/><path d="M129 120 q3 -5 6 -2 q1 3 -4 5 q-4 0 -2 -3 Z" fill="none" stroke="#9D917F" stroke-width="0.55" stroke-linecap="round" stroke-linejoin="round"/></g><g id="layer-18" opacity="1"><path d="M142 122 q3 -5 6 -2 q1 3 -4 5 q-4 0 -2 -3 Z" fill="#FFF7E8" fill-opacity=".68" stroke="none"/><path d="M142 122 q3 -5 6 -2 q1 3 -4 5 q-4 0 -2 -3 Z" fill="url(#w-paper)" stroke="none"/><path d="M142 122 q3 -5 6 -2 q1 3 -4 5 q-4 0 -2 -3 Z" fill="url(#grain)" stroke="none"/><path d="M142 122 q3 -5 6 -2 q1 3 -4 5 q-4 0 -2 -3 Z" fill="none" stroke="#9D917F" stroke-width="0.55" stroke-linecap="round" stroke-linejoin="round"/></g><g id="layer-19" opacity="1"><path d="M155 124 q3 -5 6 -2 q1 3 -4 5 q-4 0 -2 -3 Z" fill="#FFF7E8" fill-opacity=".68" stroke="none"/><path d="M155 124 q3 -5 6 -2 q1 3 -4 5 q-4 0 -2 -3 Z" fill="url(#w-paper)" stroke="none"/><path d="M155 124 q3 -5 6 -2 q1 3 -4 5 q-4 0 -2 -3 Z" fill="url(#grain)" stroke="none"/><path d="M155 124 q3 -5 6 -2 q1 3 -4 5 q-4 0 -2 -3 Z" fill="none" stroke="#9D917F" stroke-width="0.55" stroke-linecap="round" stroke-linejoin="round"/></g><g id="layer-20" opacity="1"><path d="M168 120 q3 -5 6 -2 q1 3 -4 5 q-4 0 -2 -3 Z" fill="#FFF7E8" fill-opacity=".68" stroke="none"/><path d="M168 120 q3 -5 6 -2 q1 3 -4 5 q-4 0 -2 -3 Z" fill="url(#w-paper)" stroke="none"/><path d="M168 120 q3 -5 6 -2 q1 3 -4 5 q-4 0 -2 -3 Z" fill="url(#grain)" stroke="none"/><path d="M168 120 q3 -5 6 -2 q1 3 -4 5 q-4 0 -2 -3 Z" fill="none" stroke="#9D917F" stroke-width="0.55" stroke-linecap="round" stroke-linejoin="round"/></g><g id="layer-21" opacity="1"><path d="M77 132 q3 -5 6 -2 q1 3 -4 5 q-4 0 -2 -3 Z" fill="#FFF7E8" fill-opacity=".68" stroke="none"/><path d="M77 132 q3 -5 6 -2 q1 3 -4 5 q-4 0 -2 -3 Z" fill="url(#w-paper)" stroke="none"/><path d="M77 132 q3 -5 6 -2 q1 3 -4 5 q-4 0 -2 -3 Z" fill="url(#grain)" stroke="none"/><path d="M77 132 q3 -5 6 -2 q1 3 -4 5 q-4 0 -2 -3 Z" fill="none" stroke="#9D917F" stroke-width="0.55" stroke-linecap="round" stroke-linejoin="round"/></g><g id="layer-22" opacity="1"><path d="M90 134 q3 -5 6 -2 q1 3 -4 5 q-4 0 -2 -3 Z" fill="#FFF7E8" fill-opacity=".68" stroke="none"/><path d="M90 134 q3 -5 6 -2 q1 3 -4 5 q-4 0 -2 -3 Z" fill="url(#w-paper)" stroke="none"/><path d="M90 134 q3 -5 6 -2 q1 3 -4 5 q-4 0 -2 -3 Z" fill="url(#grain)" stroke="none"/><path d="M90 134 q3 -5 6 -2 q1 3 -4 5 q-4 0 -2 -3 Z" fill="none" stroke="#9D917F" stroke-width="0.55" stroke-linecap="round" stroke-linejoin="round"/></g><g id="layer-23" opacity="1"><path d="M103 130 q3 -5 6 -2 q1 3 -4 5 q-4 0 -2 -3 Z" fill="#FFF7E8" fill-opacity=".68" stroke="none"/><path d="M103 130 q3 -5 6 -2 q1 3 -4 5 q-4 0 -2 -3 Z" fill="url(#w-paper)" stroke="none"/><path d="M103 130 q3 -5 6 -2 q1 3 -4 5 q-4 0 -2 -3 Z" fill="url(#grain)" stroke="none"/><path d="M103 130 q3 -5 6 -2 q1 3 -4 5 q-4 0 -2 -3 Z" fill="none" stroke="#9D917F" stroke-width="0.55" stroke-linecap="round" stroke-linejoin="round"/></g><g id="layer-24" opacity="1"><path d="M116 132 q3 -5 6 -2 q1 3 -4 5 q-4 0 -2 -3 Z" fill="#FFF7E8" fill-opacity=".68" stroke="none"/><path d="M116 132 q3 -5 6 -2 q1 3 -4 5 q-4 0 -2 -3 Z" fill="url(#w-paper)" stroke="none"/><path d="M116 132 q3 -5 6 -2 q1 3 -4 5 q-4 0 -2 -3 Z" fill="url(#grain)" stroke="none"/><path d="M116 132 q3 -5 6 -2 q1 3 -4 5 q-4 0 -2 -3 Z" fill="none" stroke="#9D917F" stroke-width="0.55" stroke-linecap="round" stroke-linejoin="round"/></g><g id="layer-25" opacity="1"><path d="M129 134 q3 -5 6 -2 q1 3 -4 5 q-4 0 -2 -3 Z" fill="#FFF7E8" fill-opacity=".68" stroke="none"/><path d="M129 134 q3 -5 6 -2 q1 3 -4 5 q-4 0 -2 -3 Z" fill="url(#w-paper)" stroke="none"/><path d="M129 134 q3 -5 6 -2 q1 3 -4 5 q-4 0 -2 -3 Z" fill="url(#grain)" stroke="none"/><path d="M129 134 q3 -5 6 -2 q1 3 -4 5 q-4 0 -2 -3 Z" fill="none" stroke="#9D917F" stroke-width="0.55" stroke-linecap="round" stroke-linejoin="round"/></g><g id="layer-26" opacity="1"><path d="M142 130 q3 -5 6 -2 q1 3 -4 5 q-4 0 -2 -3 Z" fill="#FFF7E8" fill-opacity=".68" stroke="none"/><path d="M142 130 q3 -5 6 -2 q1 3 -4 5 q-4 0 -2 -3 Z" fill="url(#w-paper)" stroke="none"/><path d="M142 130 q3 -5 6 -2 q1 3 -4 5 q-4 0 -2 -3 Z" fill="url(#grain)" stroke="none"/><path d="M142 130 q3 -5 6 -2 q1 3 -4 5 q-4 0 -2 -3 Z" fill="none" stroke="#9D917F" stroke-width="0.55" stroke-linecap="round" stroke-linejoin="round"/></g><g id="layer-27" opacity="1"><path d="M155 132 q3 -5 6 -2 q1 3 -4 5 q-4 0 -2 -3 Z" fill="#FFF7E8" fill-opacity=".68" stroke="none"/><path d="M155 132 q3 -5 6 -2 q1 3 -4 5 q-4 0 -2 -3 Z" fill="url(#w-paper)" stroke="none"/><path d="M155 132 q3 -5 6 -2 q1 3 -4 5 q-4 0 -2 -3 Z" fill="url(#grain)" stroke="none"/><path d="M155 132 q3 -5 6 -2 q1 3 -4 5 q-4 0 -2 -3 Z" fill="none" stroke="#9D917F" stroke-width="0.55" stroke-linecap="round" stroke-linejoin="round"/></g><g id="layer-28" opacity="1"><path d="M168 134 q3 -5 6 -2 q1 3 -4 5 q-4 0 -2 -3 Z" fill="#FFF7E8" fill-opacity=".68" stroke="none"/><path d="M168 134 q3 -5 6 -2 q1 3 -4 5 q-4 0 -2 -3 Z" fill="url(#w-paper)" stroke="none"/><path d="M168 134 q3 -5 6 -2 q1 3 -4 5 q-4 0 -2 -3 Z" fill="url(#grain)" stroke="none"/><path d="M168 134 q3 -5 6 -2 q1 3 -4 5 q-4 0 -2 -3 Z" fill="none" stroke="#9D917F" stroke-width="0.55" stroke-linecap="round" stroke-linejoin="round"/></g></svg>
